# xmcd CD database file
#
# Track frame offsets:
#	150
#	14855
#	40693
#	59090
#	75615
#	86260
#	94822
#	107237
#	129193
#	155284
#	174472
#	189224
#
# Disc length: 2664 seconds
#
# Revision: 0
# Processed by: cddbd v1.5.2PL0 Copyright (c) Steve Scherf et al.
# Submitted via: CDex 1.70beta2
#
DISCID=8f0a660c
DTITLE=Rusconi - One Up Down Left Right
DYEAR=2009
DGENRE=Jazz
TTITLE0=Playbox
TTITLE1=Point of no return
TTITLE2=Stadtmitte
TTITLE3=One up down left right
TTITLE4=Dead man walking
TTITLE5=Bribe the wrong guy
TTITLE6=Helsinki
TTITLE7=Tripping
TTITLE8=Girl with the dancing silver shoes
TTITLE9=So far
TTITLE10=Perla moda
TTITLE11=Till dawn
EXTD=YEAR: 2009
EXTT0=
EXTT1=
EXTT2=
EXTT3=
EXTT4=
EXTT5=
EXTT6=
EXTT7=
EXTT8=
EXTT9=
EXTT10=
EXTT11=
PLAYORDER=
